<svg width="10" height="10" viewBox="0 0 10 10" fill="none" xmlns="http://www.w3.org/2000/svg">
<path d="M9.16668 2.38336L7.25001 0.775024L6.71251 1.41252L8.62918 3.02086L9.16668 2.38336ZM3.28334 1.41252L2.75001 0.775024L0.833344 2.37919L1.37084 3.01669L3.28334 1.41252ZM5.20834 3.33336H4.58334V5.83336L6.56251 7.02086L6.87501 6.50836L5.20834 5.52086V3.33336ZM5.00001 1.66669C2.92918 1.66669 1.25001 3.34586 1.25001 5.41669C1.25001 7.48752 2.92501 9.16669 5.00001 9.16669C7.07084 9.16669 8.75001 7.48752 8.75001 5.41669C8.75001 3.34586 7.07084 1.66669 5.00001 1.66669ZM5.00001 8.33336C3.38751 8.33336 2.08334 7.02919 2.08334 5.41669C2.08334 3.80419 3.38751 2.50002 5.00001 2.50002C6.61251 2.50002 7.91668 3.80419 7.91668 5.41669C7.91668 7.02919 6.61251 8.33336 5.00001 8.33336Z" fill="#51B4B2"/>
</svg>
